<svg width="340" height="279" viewBox="0 0 340 279" fill="none" xmlns="http://www.w3.org/2000/svg">
<g opacity="0.4">
<path d="M327.51 115.63C326.74 121.97 325.95 128.32 325.16 134.66C323.11 150.98 321.06 167.3 319 183.61C318.04 191.19 317.07 198.76 316.03 206.32C315.85 207.66 315.44 209 314.92 210.24C313.76 212.97 313.5 213.03 310.77 211.87C310.79 212.33 310.78 212.73 310.83 213.11C311.21 216.29 310.67 217.23 307.68 218.29C306.87 218.58 306.01 218.93 305.17 218.93C299.65 218.99 294.14 218.96 288.42 218.96C286.43 204.1 284.45 189.35 282.47 174.51H246.35C248.06 189.3 249.77 204.01 251.49 218.88C250.9 218.93 250.43 219.02 249.96 219.02C234.13 219.02 218.29 218.86 202.45 219.11C196.83 219.19 192.51 214.01 193.25 208.76C195.1 195.73 196.69 182.67 198.38 169.62C200.48 153.44 202.56 137.25 204.66 121.06C205 118.41 205.35 115.76 205.78 113.13C206.65 107.81 211.51 103.6 217.01 103.54C224.27 103.46 231.54 103.51 238.81 103.51C264.39 103.51 289.98 103.46 315.57 103.57C317.96 103.58 320.6 104.08 322.68 105.18C326.73 107.32 328.05 111.16 327.51 115.63Z" fill="#182954"/>
<path d="M310.92 12.25H151.76V50.45C152.31 50.6 152.78 50.74 153.25 50.84C161.47 52.61 168.55 56.5 174.7 62.2C181.18 68.21 185.48 75.6 188.45 83.82C188.97 85.25 189.65 85.61 191.11 85.61C212.1 85.55 233.09 85.55 254.07 85.55C269.47 85.54 284.88 85.54 300.28 85.56C304.19 85.57 307.46 84.42 309.59 80.89C310.96 78.62 310.87 76.13 310.87 73.65C310.9 53.85 310.91 34.04 310.92 14.23V12.25ZM199.4 25.4C200.02 25.37 200.57 25.31 201.11 25.3C211.11 25.29 221.11 25.28 231.11 25.27C231.61 25.27 232.16 25.17 232.58 25.35C232.95 25.51 233.38 26 233.39 26.35C233.4 26.67 232.92 27.11 232.55 27.28C232.19 27.45 231.7 27.37 231.27 27.37C221.14 27.38 211.02 27.39 200.89 27.4H199.4V25.4ZM223.24 33.2H199.45V31.37H223.14C223.17 31.94 223.2 32.47 223.24 33.2ZM178.97 52.57C170.86 52.39 164.88 46.04 165.05 37.78C165.21 29.95 171.66 23.68 179.33 23.9C187.4 24.13 193.4 30.45 193.22 38.54C193.05 46.64 186.85 52.75 178.97 52.57ZM222.28 50.97C214.73 51.04 207.18 51.02 199.46 51.02C199.42 50.36 199.38 49.79 199.32 48.9C204.48 48.9 209.36 48.9 214.25 48.9C216.91 48.9 219.57 48.83 222.23 48.9C222.66 48.91 223.08 49.5 223.49 49.82C223.09 50.22 222.69 50.96 222.28 50.96V50.97ZM199.47 45V43.26H220.29C220.57 44.49 220.31 45.22 219.02 45.22C212.64 45.21 206.26 45.21 199.89 45.19C199.78 45.19 199.67 45.09 199.47 45ZM242.24 39.07C240.82 39.18 239.39 39.12 237.96 39.12C225.79 39.13 213.63 39.14 201.46 39.15H199.46V37.08C200.06 37.04 200.61 36.96 201.15 36.96C214.62 36.99 228.09 37.02 241.57 37.06C241.81 37.06 242.13 36.97 242.3 37.1C242.69 37.4 243.02 37.79 243.37 38.15C243 38.47 242.64 39.04 242.24 39.07ZM296.28 48.77C290.57 48.84 284.86 48.81 279.15 48.81C273.63 48.82 268.1 48.83 262.58 48.81C261.85 48.81 260.69 49.12 260.95 47.79C261.02 47.4 261.98 46.91 262.54 46.9C273.78 46.84 285.01 46.82 296.25 46.86C296.79 46.86 297.32 47.46 297.86 47.78C297.33 48.12 296.81 48.76 296.28 48.77ZM291.79 27.4C286.27 27.37 280.75 27.35 275.22 27.36C273.98 27.37 273.71 26.82 274.09 25.55H293.11C293.6 26.85 293.15 27.4 291.79 27.4ZM294.36 41.36C294.78 42.7 294.45 43.35 292.95 43.34C282.91 43.29 272.87 43.27 262.82 43.26C261.57 43.25 260.91 42.87 261.37 41.36H294.36ZM291.25 35.82C292.54 35.82 293.34 36.05 292.8 37.78C292.1 37.82 291.49 37.88 290.88 37.88C281.7 37.86 272.52 37.83 263.34 37.8C262.85 37.8 262.31 37.86 261.87 37.69C261.57 37.57 261.22 37.12 261.21 36.82C261.21 36.51 261.57 36.06 261.87 35.94C262.31 35.78 262.84 35.84 263.34 35.84C272.64 35.83 281.94 35.84 291.25 35.82ZM271.18 27.38C268.15 27.38 265.19 27.42 262.24 27.32C261.84 27.31 261.47 26.59 261.09 26.19C261.5 25.92 261.91 25.43 262.32 25.42C265.22 25.35 268.13 25.38 271.18 25.38V27.38ZM298.05 20.38C297.97 20.83 296.81 21.4 296.14 21.4C284.54 21.46 272.94 21.43 261.34 21.46C259.95 21.46 259.36 21.03 259.86 19.34H262.55C273.78 19.34 285 19.33 296.23 19.36C296.98 19.36 298.28 18.95 298.05 20.38Z" fill="#1D4594"/>
<path d="M28.4299 36.19V38.12C28.4499 58.56 28.4699 79 28.4699 99.43C28.4699 125.46 28.4499 151.48 28.4599 177.51C28.4599 184.05 31.2899 186.95 37.6699 186.97C50.5299 187 63.3899 186.99 76.2499 187H78.2299C78.2299 185.89 78.2499 185.08 78.2299 184.28C77.9699 175.68 78.4899 167.12 80.2299 158.7C82.4199 148.07 84.9799 137.52 87.3699 126.93C87.7099 125.38 88.0199 123.83 88.3899 122.1C87.4799 122.1 86.8099 122.11 86.1299 122.1C77.7499 122.1 69.3599 122.11 60.9799 122.1C59.0599 122.1 58.9999 122 59.5499 119.92H88.8499C88.9499 119.5 89.0299 119.27 89.0699 119.03C90.6999 110.06 92.2699 101.07 93.9499 92.1C95.8799 81.82 99.4199 72.23 106.66 64.38C111.17 59.49 116.36 55.66 123.17 54.67C124.32 54.51 124.38 53.87 124.37 53C124.36 49.15 124.37 45.3 124.37 41.45V36.2H28.4299V36.19ZM38.7699 41.72C39.2999 41.67 39.7699 41.58 40.2499 41.58C50.6199 41.57 60.9899 41.58 71.3599 41.58C72.7899 41.58 74.2199 41.48 75.6399 41.61C76.0399 41.64 76.3799 42.3 76.7499 42.67C76.3699 42.96 75.9899 43.5 75.6099 43.5C63.4399 43.53 51.2699 43.51 39.1099 43.5C39.0599 43.5 38.9999 43.44 38.7699 43.28V41.72ZM39.8999 52.93C46.7799 52.92 53.6599 52.95 60.5499 52.93C61.8899 52.93 62.7999 53.19 62.2099 55H38.7899C38.7599 54.34 38.7299 53.75 38.6999 53.1C39.1899 53.02 39.5399 52.93 39.8999 52.93ZM59.9299 84.48C59.9599 85.61 60.4199 86.7 58.8299 86.69H38.8199V84.48H59.9299ZM38.8299 77.91V75.99H59.0699C59.1099 76.66 59.1399 77.19 59.1899 77.91H38.8299ZM57.2199 67.33C56.8499 67.33 56.3799 67.44 56.1199 67.26C55.7399 66.99 55.3499 66.55 55.2699 66.12C55.2199 65.91 55.7999 65.43 56.1799 65.31C56.6299 65.16 57.1599 65.25 57.6499 65.25C64.3499 65.24 71.0499 65.23 77.7499 65.24C78.4799 65.24 79.2099 65.3 80.0599 65.34C80.0899 66.01 80.1199 66.54 80.1499 67.2C79.5599 67.26 79.0899 67.36 78.6099 67.36C71.4799 67.36 64.3499 67.34 57.2199 67.33ZM61.4699 178.45C54.0399 178.43 46.6099 178.44 39.1799 178.42C39.0699 178.42 38.9499 178.34 38.7699 178.26V176.53H62.5499C62.6899 177.53 63.0299 178.46 61.4699 178.45ZM38.7099 169.96C38.7499 169.19 38.7799 168.65 38.8099 168.01H62.4099C62.7399 169.12 62.8299 169.97 61.2599 169.97C53.8199 169.96 46.3699 169.96 38.7099 169.96ZM73.0399 149.4C61.6899 149.39 50.3399 149.39 38.8199 149.39V147.29H74.0899C74.2899 148.35 74.7699 149.4 73.0399 149.4ZM38.8299 140.68V138.49H43.1599C48.6199 138.49 54.0699 138.5 59.5299 138.5C60.3499 138.5 61.3599 138.39 61.1199 139.6C61.0299 140.04 60.1399 140.63 59.6099 140.63C52.7299 140.7 45.8599 140.68 38.8299 140.68ZM74.7799 131.07C74.8299 131.63 74.8799 132.16 74.9499 132.92H38.8399C38.7999 132.36 38.7699 131.79 38.7199 131.07H74.7799ZM69.3399 108.6C59.2899 108.56 49.2399 108.56 39.1799 108.54C39.0699 108.54 38.9599 108.44 38.7699 108.36V106.48H70.4999C70.6799 107.7 70.8499 108.6 69.3399 108.6ZM80.3299 94.79H38.7999C38.7699 94.17 38.7399 93.54 38.6999 92.73H44.5799C55.9199 92.73 67.2699 92.75 78.6099 92.73C80.0399 92.72 80.9899 92.92 80.3299 94.8V94.79ZM103.64 54.99C103.45 55.15 103.04 55.08 102.73 55.08C93.6099 55.07 84.4899 55.04 75.3599 55.06C74.0699 55.07 73.4799 54.66 73.8699 53.1C74.4299 53.04 74.9099 52.95 75.3999 52.95C84.4599 52.94 93.5199 52.94 102.59 52.93C102.9 52.93 103.27 52.84 103.5 52.98C103.86 53.19 104.36 53.57 104.36 53.89C104.37 54.26 103.97 54.7 103.64 54.99Z" fill="#1D4594"/>
<path d="M160.58 201.07L159.12 202.52C160.31 204.34 160.97 206.56 160.98 209C160.99 211.54 160.3 214.1 158.95 216.41L157.55 214.8C158.55 213.05 159.13 211.06 159.15 209.02C159.18 207.05 158.68 205.27 157.82 203.82C157.47 203.23 157.06 202.69 156.6 202.2L152 206.66C152.46 207.19 152.72 207.89 152.73 208.67C152.74 208.7 152.74 208.73 152.74 208.76C152.74 208.85 152.73 208.94 152.73 209.04C152.67 209.84 152.35 210.64 151.8 211.3C151.72 211.4 151.63 211.5 151.55 211.58L153 213.31C154.25 212.01 154.99 210.22 154.91 208.41C154.89 207.9 154.8 207.42 154.66 206.97L156.25 205.39C156.76 206.45 157.03 207.7 156.98 209.05C156.94 210.43 156.57 211.76 155.95 212.97C155.56 213.73 155.07 214.44 154.49 215.08L156.05 216.92L157.44 218.57L159.09 220.52C159.66 219.82 160.17 219.09 160.63 218.33C162.37 215.42 163.23 212.17 163.15 208.97C163.07 205.95 162.15 203.23 160.58 201.07ZM154.24 218.93L152.69 217.02C152.08 217.67 151.38 218.23 150.62 218.68C149.4 219.41 148.02 219.84 146.61 219.87C145.18 219.9 143.88 219.5 142.82 218.79L144.8 216.81C145.25 217.01 145.73 217.14 146.25 217.19C148.07 217.38 149.88 216.57 151.2 215.19L149.75 213.4C149.66 213.5 149.56 213.59 149.46 213.67C148.78 214.24 147.98 214.56 147.18 214.57C147.09 214.57 147 214.57 146.91 214.57H146.82C146.04 214.49 145.38 214.13 144.91 213.53L139.09 219.17C139.55 219.82 140.09 220.41 140.7 220.91C142.19 222.14 144.1 222.83 146.26 222.79C148.4 222.75 150.45 221.99 152.22 220.73L153.62 222.51C151.33 224.3 148.66 225.31 145.94 225.37C143.21 225.43 140.74 224.51 138.83 222.77L136.6 225C138.92 227.38 142.04 228.65 145.56 228.57C149.05 228.49 152.45 227.09 155.3 224.65C156 224.05 156.67 223.39 157.29 222.68L155.63 220.65L154.24 218.94V218.93ZM142.48 200.83L143.66 202.24C144.24 201.75 144.87 201.35 145.53 201.03C146.59 200.52 147.73 200.22 148.91 200.21C150.09 200.2 151.18 200.48 152.11 200.99L150.53 202.43C150.14 202.28 149.72 202.18 149.27 202.14C147.69 201.99 146.1 202.59 144.87 203.67L146.12 205.16C146.21 205.08 146.3 205 146.4 204.93C147.04 204.45 147.77 204.19 148.49 204.19C148.57 204.18 148.65 204.19 148.73 204.19C148.76 204.19 148.78 204.19 148.81 204.19C149.52 204.26 150.13 204.56 150.59 205.06L155.19 200.74C154.73 200.28 154.23 199.88 153.69 199.54C152.39 198.73 150.84 198.28 149.14 198.29C147.45 198.31 145.79 198.78 144.29 199.6L143.27 198.42C145.18 197.33 147.26 196.76 149.33 196.74C151.41 196.73 153.35 197.28 154.99 198.35L156.45 197.02C154.46 195.66 152.09 194.95 149.55 194.97C147.01 194.98 144.45 195.72 142.11 197.1C141.51 197.45 140.92 197.85 140.35 198.3L141.47 199.63L142.48 200.82V200.83ZM136.69 215.07C136.95 215.82 137.29 216.52 137.72 217.15L143.51 211.71C143.08 211.13 142.88 210.39 142.94 209.58C142.94 209.54 142.94 209.51 142.95 209.48C142.95 209.39 142.97 209.3 142.98 209.21C143.12 208.4 143.5 207.64 144.08 207.02C144.16 206.93 144.25 206.84 144.34 206.76L143.09 205.23C141.79 206.37 140.86 208.03 140.69 209.85C140.64 210.38 140.66 210.89 140.74 211.37L138.78 213.16C138.43 211.95 138.38 210.6 138.68 209.19C138.96 207.84 139.53 206.59 140.3 205.52C140.76 204.86 141.3 204.27 141.89 203.75L140.71 202.3L139.71 201.07L138.59 199.7C138.01 200.17 137.45 200.69 136.93 201.23C134.8 203.45 133.2 206.21 132.37 209.27C131.48 212.54 131.57 215.84 132.66 218.75L134.85 216.74C134.03 214.44 133.94 211.84 134.59 209.24C135.2 206.79 136.42 204.53 138.07 202.68L139.08 203.96C137.86 205.44 136.92 207.23 136.46 209.22C135.98 211.3 136.09 213.31 136.69 215.07Z" fill="#182954"/>
<path d="M256.38 261.69C256.07 259.59 255.78 257.66 255.52 255.94C252.11 255.94 248.86 255.71 245.67 256.01C242.74 256.29 240.99 255 239.19 252.97C236.65 250.1 233.86 247.44 231.03 244.86C229.33 243.31 227.14 242.72 224.8 242.85C219.84 243.14 214.9 243.51 210.2 245.37C208.42 246.07 206.57 246.65 204.71 247.11C203.95 247.3 202.96 247.27 202.27 246.95C196.11 244.01 190.01 240.95 183.85 238.02C182.79 237.52 182.21 236.92 181.95 235.79C178.57 221.48 175.19 207.17 171.75 192.87C170.4 187.27 169.21 181.59 166 176.63C161.56 169.76 155.35 165.6 147.16 164.3C148.7 171.38 146.52 174.72 139.38 176.05C135.8 176.72 132.18 176.5 128.69 175.41C122.54 173.49 117.4 170.3 115.01 163.85C114.87 163.46 114.12 163.05 113.66 163.07C111.93 163.14 110.21 163.37 108.48 163.57C97.17 164.88 88.83 170.43 85.27 181.42C82.09 191.26 79.78 201.39 77.15 211.4C76.45 214.09 76 216.84 75.38 219.75H80.8C90.73 219.79 100.67 219.8 110.61 219.88C114.78 219.91 117.87 222.44 118.11 226.14C118.3 229.05 118.28 231.98 118.08 234.89C117.85 238.24 115.43 240.56 112.1 240.65C107.38 240.77 102.65 240.76 97.94 240.61C94.62 240.5 92.5499 238.37 92.34 235.04C92.1899 232.75 92.22 230.45 92.29 228.15C92.37 225.73 92.72 223.37 95.14 221.95C94.92 221.81 94.87 221.76 94.82 221.76C75.2 221.73 55.57 221.67 35.95 221.7C32.07 221.71 29.17 224.51 28.7 228.4C28.56 229.63 28.51 230.88 28.55 232.12C28.75 238.3 31.69 241.14 37.85 241.18C62.01 241.36 86.16 241.53 110.32 241.73C111.42 241.74 112.54 241.88 113.63 242.08C115.5 242.43 117.33 243.1 119.21 243.26C128.81 244.05 138.41 244.71 148.01 245.43C156.31 246.06 164.49 247.24 172.7 243.78C178.74 241.23 184.93 242.88 190.42 246.5C193.9 248.8 197.01 251.53 199.52 255.36C200.56 252.33 201.97 250.22 204.86 249.37C207.96 248.46 211.01 247.4 214.06 246.36C217.14 245.31 220.2 244.85 223.28 246.34C223.42 246.4 223.62 246.32 223.92 246.3C223.67 245.78 223.46 245.35 223.24 244.89C228.35 243.8 234.41 249.7 238.4 255.82C236.42 256.25 234.73 256.06 233.15 254.53C231.42 252.86 229.43 251.45 227.55 249.93C227.45 250.06 227.35 250.18 227.25 250.31C228.35 252.05 229.44 253.79 230.68 255.75C228.07 256.17 225.99 256.27 223.95 254.88C219.67 251.95 215.15 251.7 210.63 254.33C209.95 254.73 209.66 255.79 209.19 256.54C209.88 256.85 210.55 257.37 211.27 257.44C214.96 257.78 218.66 258.01 221.66 258.23C222.84 257.3 223.6 256.7 224.36 256.1C224.52 256.23 224.67 256.36 224.82 256.49V261.69H256.38ZM59.74 234.63C57.57 234.67 55.55 232.68 55.55 230.51C55.55 228.34 57.32 226.62 59.44 226.54C61.69 226.46 63.66 228.32 63.69 230.56C63.73 232.77 61.97 234.59 59.74 234.63ZM142.11 197.11C144.45 195.73 147.01 194.99 149.55 194.98C152.09 194.96 154.46 195.67 156.45 197.03L154.99 198.36C153.35 197.29 151.41 196.74 149.33 196.75C147.26 196.77 145.18 197.34 143.27 198.43L144.29 199.61C145.79 198.79 147.45 198.32 149.14 198.3C150.84 198.29 152.39 198.74 153.69 199.55C154.23 199.89 154.73 200.29 155.19 200.75L150.59 205.07C150.13 204.57 149.52 204.27 148.81 204.2C148.78 204.2 148.76 204.2 148.73 204.2C148.65 204.2 148.57 204.19 148.49 204.2C147.77 204.2 147.04 204.46 146.4 204.94C146.3 205.01 146.21 205.09 146.12 205.17L144.87 203.68C146.1 202.6 147.69 202 149.27 202.15C149.72 202.19 150.14 202.29 150.53 202.44L152.11 201C151.18 200.49 150.09 200.21 148.91 200.22C147.73 200.23 146.59 200.53 145.53 201.04C144.87 201.36 144.24 201.76 143.66 202.25L142.48 200.84L141.47 199.65L140.35 198.32C140.92 197.87 141.51 197.47 142.11 197.12V197.11ZM138.07 202.68C136.42 204.53 135.2 206.79 134.59 209.24C133.94 211.84 134.03 214.44 134.85 216.74L132.66 218.75C131.57 215.84 131.48 212.54 132.37 209.27C133.2 206.21 134.8 203.45 136.93 201.23C137.45 200.69 138.01 200.17 138.59 199.7L139.71 201.07L140.71 202.3L141.89 203.75C141.3 204.27 140.76 204.86 140.3 205.52C139.53 206.59 138.96 207.84 138.68 209.19C138.38 210.6 138.43 211.95 138.78 213.16L140.74 211.37C140.66 210.89 140.64 210.38 140.69 209.85C140.86 208.03 141.79 206.37 143.09 205.23L144.34 206.76C144.25 206.84 144.16 206.93 144.08 207.02C143.5 207.64 143.12 208.4 142.98 209.21C142.98 209.3 142.95 209.39 142.95 209.48C142.94 209.51 142.94 209.54 142.94 209.58C142.88 210.39 143.08 211.13 143.51 211.71L137.72 217.15C137.29 216.52 136.95 215.82 136.69 215.07C136.09 213.31 135.98 211.3 136.46 209.22C136.92 207.23 137.86 205.44 139.08 203.96L138.07 202.68ZM155.3 224.64C152.45 227.08 149.05 228.48 145.56 228.56C142.04 228.64 138.92 227.37 136.6 224.99L138.83 222.76C140.74 224.5 143.21 225.42 145.94 225.36C148.66 225.3 151.33 224.29 153.62 222.5L152.22 220.72C150.45 221.98 148.4 222.74 146.26 222.78C144.1 222.82 142.19 222.13 140.7 220.9C140.09 220.4 139.55 219.81 139.09 219.16L144.91 213.52C145.38 214.12 146.04 214.48 146.82 214.56H146.91C147 214.56 147.09 214.56 147.18 214.56C147.98 214.56 148.78 214.23 149.46 213.66C149.56 213.58 149.66 213.49 149.75 213.39L151.2 215.18C149.88 216.56 148.07 217.37 146.25 217.18C145.73 217.13 145.25 217 144.8 216.8L142.82 218.78C143.88 219.49 145.18 219.89 146.61 219.86C148.02 219.83 149.4 219.4 150.62 218.67C151.38 218.22 152.08 217.66 152.69 217.01L154.24 218.92L155.63 220.63L157.29 222.66C156.67 223.37 156 224.03 155.3 224.63V224.64ZM156.05 216.92L154.49 215.08C155.07 214.44 155.56 213.73 155.95 212.97C156.57 211.76 156.94 210.43 156.98 209.05C157.03 207.7 156.76 206.45 156.25 205.39L154.66 206.97C154.8 207.42 154.89 207.9 154.91 208.41C154.99 210.22 154.25 212.01 153 213.31L151.55 211.58C151.63 211.5 151.72 211.4 151.8 211.3C152.35 210.64 152.67 209.84 152.73 209.04C152.73 208.94 152.74 208.85 152.74 208.76C152.74 208.73 152.74 208.7 152.73 208.67C152.73 207.89 152.46 207.19 152 206.66L156.6 202.2C157.06 202.69 157.47 203.23 157.82 203.82C158.68 205.27 159.18 207.05 159.15 209.02C159.13 211.06 158.55 213.05 157.55 214.8L158.95 216.41C160.3 214.1 160.99 211.54 160.98 209C160.98 206.56 160.31 204.34 159.12 202.52L160.58 201.07C162.15 203.23 163.07 205.95 163.15 208.97C163.23 212.17 162.37 215.42 160.63 218.33C160.17 219.09 159.66 219.82 159.09 220.52L157.44 218.57L156.05 216.92ZM165.36 222.31C163.45 228.85 161.52 235.39 159.58 241.93C159.42 242.45 159.09 242.92 158.85 243.42C158.64 243.36 158.43 243.31 158.21 243.25C158.32 242.4 158.36 241.53 158.55 240.7C160.14 233.55 161.74 226.4 163.36 219.26C164.33 214.93 164.15 210.66 162.98 206.37C161.07 199.43 159.3 192.46 157.48 185.5C157.42 185.27 157.41 185.02 157.36 184.71C158.31 184.19 158.83 184.15 159.19 185.43C161.03 192.01 162.85 198.59 164.93 205.09C166.76 210.83 167.06 216.53 165.36 222.31Z" fill="#182954"/>
<path d="M188.48 95.41C186.85 84.06 182.25 73.88 174.08 65.56C163.62 54.91 150.89 50.92 136.26 52.72C133.26 53.09 130.33 54.11 127.29 54.84C130.48 56.43 133.32 57.84 136.1 59.23C135.44 61.1 134.63 60.38 133.89 60.01C128.59 57.36 123.25 57.4 117.94 59.94C111.39 63.06 107.05 68.43 103.5 74.53C99.3699 81.62 97.4799 89.48 96.1399 97.45C93.3899 113.8 90.0499 130.02 86.0999 146.11C83.7499 155.71 81.7299 165.36 81.0899 175.24C80.9099 178.1 81.0699 180.97 81.0699 183.84C82.1199 182.07 82.7699 180.27 83.5099 178.51C86.8999 170.5 92.5399 164.74 101.08 162.66C106.28 161.4 111.72 161.07 117.07 160.53C118.55 160.39 119.31 160.13 119.57 158.57C120 155.88 120.64 153.22 121.14 150.54C121.92 146.48 122.65 142.41 123.43 138.16C123.79 138.44 124.01 138.55 124.15 138.73C127.81 143.5 132.34 147.35 136.93 151.18C137.89 151.98 138.69 153.12 139.21 154.27C140.62 157.37 141.82 160.57 143.14 163.71C143.42 164.38 143.87 164.97 144.25 165.6C144.38 165.53 144.51 165.47 144.65 165.41C144.5 164.1 144.35 162.78 144.18 161.33C152.82 162.26 160.17 165.2 165.92 172.31C168.94 168.06 172 164.22 174.57 160.07C186.91 140.2 191.81 118.6 188.48 95.41ZM170.5 136.38C168.49 140.05 165.96 143.46 163.45 146.83C159.6 152 154.3 153.05 148.47 151.16C134.28 146.56 125.07 137.03 120.73 122.57C119.86 122.46 118.83 122.36 117.79 122.2C111.58 121.25 106.96 115.55 107.3 109.27C107.5 105.42 110.15 102.22 113.55 101.69C116.8 101.19 120.32 103.25 121.41 106.88C122.1 109.17 123.33 109.95 125.47 110.33C128.39 110.85 131.25 111.72 134.16 112.31C135.73 112.63 136.63 113.26 136.31 115C136.26 115.3 136.32 115.62 136.33 115.93C136.52 120.75 137.84 122.42 142.61 123.08C147.09 123.7 151.61 124.12 156.12 124.42C160.77 124.73 162.78 123.11 163.95 118.56C164.11 117.96 164.25 117.36 164.41 116.75C164.64 116.64 164.7 116.6 164.75 116.59C168.66 116.48 168.59 116.49 168.97 120.26C169.14 122.04 169.54 123.8 170 125.53C170.69 128.12 170.35 128.87 167.75 129.57C166.92 129.79 166.05 129.92 165.2 130.06C164.34 130.21 163.49 130.33 162.6 130.47C163.82 131.69 167.71 131.96 169.9 131.01C172.12 130.05 172.84 128.72 172.74 125.7H174.89C173.37 129.47 172.29 133.11 170.5 136.38ZM139.59 116.99C139.56 114.47 139.89 111.94 140.2 109.43C140.38 107.99 141.32 107.35 142.85 107.52C148.33 108.11 153.81 108.64 159.29 109.19C160.98 109.35 161.76 110.4 161.6 111.95C161.36 114.41 161.06 116.88 160.47 119.27C159.94 121.43 158.73 121.89 153.92 121.78C151.28 121.5 147.15 121.13 143.03 120.62C140.68 120.33 139.61 119.32 139.59 116.99ZM175.61 121.79C175.44 122.68 175.14 123.14 174.17 123.01C173.23 122.87 171.88 123.17 171.92 121.73C171.99 118.58 172.06 115.4 172.55 112.31C172.84 110.46 174.44 111.56 175.2 111.59C174.81 113.04 174.3 114.4 174.13 115.8C174.07 116.34 174.76 116.98 175.2 117.72C175.86 117.09 176.27 116.7 176.9 116.1C176.42 118.2 175.95 119.98 175.61 121.79ZM172.99 108.42C172.07 108.46 171.02 108.78 170.27 109.31C167.97 110.97 165.75 110.58 163.86 108.49C163 107.53 161.51 106.8 160.22 106.62C154.5 105.86 148.75 105.19 143 104.79C141.05 104.66 139.04 105.45 137.05 105.79C136.53 105.88 135.97 105.94 135.45 105.85C133.08 105.43 130.71 104.95 128.03 104.43C133.7 101.92 138.76 99.06 143.15 95.12C145.77 92.77 148.06 90.2 149.34 86.86C151.05 82.41 150.32 78.31 147.05 74.97C144.89 72.75 142.22 71.02 139.43 68.79C149.2 71.44 158.31 74.62 165.43 81.36C161.05 79.3 156.42 77.11 151.35 74.72C151.68 76.93 152.16 77.95 153.91 78.7C164.52 83.25 172.44 90.55 176.37 101.68C176.45 101.91 176.49 102.16 176.57 102.5C175.22 103.12 173.89 103.73 172.55 104.34C172.59 104.6 172.63 104.87 172.66 105.13C174.18 105.27 175.7 105.42 177.37 105.58C177.61 106.49 177.86 107.48 178.18 108.71C176.29 108.59 174.64 108.36 172.99 108.42Z" fill="#182954"/>
<path d="M28.3101 264.02C28.3101 265.64 28.3101 266.93 28.3101 268.23C28.3901 273.26 31.4301 276.96 36.4001 277.92C37.7901 278.19 39.2301 278.27 40.6501 278.28C123.49 278.3 206.34 278.3 289.18 278.31C302.09 278.31 315.01 278.32 327.93 278.26C333.49 278.24 337.57 275.72 338.82 271.23C339.45 268.96 339.31 266.48 339.52 264.02H28.3101ZM321.34 272.65H46.4901C45.6701 272.65 45.0001 271.98 45.0001 271.17C45.0001 270.36 45.6701 269.68 46.4901 269.68H321.34C322.16 269.68 322.82 270.35 322.82 271.17C322.82 271.99 322.16 272.65 321.34 272.65Z" fill="#1D4594"/>
<path d="M292.16 261.73H258.58C255.36 233.49 252.13 205.22 248.88 176.78H280.55C284.42 205.07 288.28 233.32 292.16 261.73Z" fill="#1D4594"/>
<path d="M292.16 261.23H264.19C260.49 232.91 256.78 204.6 253.08 176.28H281.68C285.17 204.57 288.66 232.82 292.16 261.23Z" fill="#182954"/>
<path d="M310.66 6.25C309.79 2.3 306.89 0.25 302.25 0.25C257.97 0.21 213.69 0.18 169.41 0.15C165.75 0.15 162.07 0.03 158.43 0.32C153.79 0.68 150.69 5.65 152.19 9.98H310.95C310.85 8.58 310.9 7.38 310.66 6.25ZM159.66 8.45C158.24 8.46 156.88 7.06 156.85 5.54C156.82 4.05 158.04 2.77 159.49 2.76C161.07 2.75 162.48 4.16 162.45 5.73C162.42 7.12 161.07 8.44 159.66 8.45ZM167.94 8.42C166.42 8.41 165.27 7.16 165.24 5.47C165.21 3.85 166.24 2.84 167.91 2.82C169.62 2.79 170.87 3.89 170.89 5.45C170.92 7.06 169.56 8.42 167.94 8.42ZM176.45 8.39C174.97 8.42 173.69 7.06 173.7 5.46C173.7 3.83 174.72 2.81 176.38 2.78C178.1 2.76 179.32 3.83 179.39 5.41C179.45 6.99 178.1 8.36 176.45 8.39Z" fill="#40AEE3"/>
<path d="M124.21 27.49C123.45 23.69 120.12 21.52 115.64 21.51C96.0799 21.49 76.5099 21.48 56.9499 21.48C50.1799 21.48 43.4099 21.46 36.6399 21.54C32.2099 21.59 28.9199 24.36 28.4699 28.43C28.2799 30.19 28.4399 32 28.4399 34.04H124.28C124.28 31.77 124.62 29.55 124.21 27.49ZM34.7999 31.18C33.3299 31.13 32.0099 29.74 31.9999 28.23C31.9999 26.7 33.3599 25.4 34.8999 25.46C36.3599 25.5 37.6899 26.9 37.6899 28.41C37.6999 29.97 36.3799 31.22 34.7999 31.18ZM43.3899 31.19C41.8099 31.25 40.4299 29.9 40.4199 28.29C40.4199 26.85 41.8099 25.38 43.2099 25.34C44.5899 25.31 46.1399 26.86 46.1999 28.36C46.2599 29.83 44.9699 31.14 43.3899 31.19ZM51.6999 31.21C50.1299 31.22 48.7899 29.88 48.7599 28.25C48.7299 26.85 50.1699 25.43 51.6299 25.42C53.1699 25.42 54.6599 26.82 54.6899 28.32C54.7299 29.9 53.3999 31.19 51.6999 31.21Z" fill="#40AEE3"/>
<path d="M59.4501 256.14C57.4001 256.1 55.6101 254.23 55.6101 252.11C55.6101 249.99 57.5001 248.11 59.7201 248.2C61.8401 248.29 63.6101 250.17 63.5401 252.25C63.4501 254.65 61.8501 256.19 59.4501 256.14ZM91.9601 251.72C92.0301 250.23 92.2701 248.77 92.7001 247.46C73.2901 247.46 54.2001 247.44 35.1101 247.52C33.7901 247.53 32.3101 248.18 31.1701 248.93C29.8901 249.78 28.9401 251.09 28.3501 252.66C28.3601 253.98 28.5801 255.32 29.0001 256.63C30.1001 260.03 32.8601 261.85 37.1201 261.86C55.4301 261.89 73.7201 261.9 92.0301 261.92H94.0801C94.3401 261.92 94.5901 261.82 94.9401 261.74C92.8001 259.47 91.8001 255.49 91.9601 251.72Z" fill="#40AEE3"/>
<path d="M95.3599 243.3C94.1499 244.23 93.2599 245.71 92.6999 247.46C73.2899 247.46 54.1999 247.44 35.1099 247.52C33.7899 247.53 32.3099 248.18 31.1699 248.93C29.8899 249.78 28.9399 251.09 28.3499 252.66C28.3199 249.35 29.5599 246.3 31.8699 244.77C33.0099 244.02 34.4899 243.37 35.8099 243.36C55.5399 243.28 75.2699 243.3 95.3599 243.3Z" fill="#182954"/>
<path d="M306.46 252.36C306.67 257.21 311.16 261.97 316.64 261.84C320.11 261.76 323.6 261.64 327.06 261.88C333.02 262.3 338.12 257.22 338.29 251.36C338.48 244.67 338.33 237.97 338.33 231.08H306.37C306.37 238.25 306.14 245.32 306.45 252.37L306.46 252.36Z" fill="#182954"/>
<path d="M313.51 252.36C313.67 257.21 317.17 261.97 321.44 261.84C324.15 261.76 326.86 261.64 329.56 261.88C334.2 262.3 338.18 257.22 338.31 251.36C338.46 244.67 338.34 237.97 338.34 231.08H313.44C313.44 238.25 313.26 245.32 313.5 252.37L313.51 252.36Z" fill="#1D4594"/>
<path d="M193.22 192.49C194.76 180.74 196.33 168.99 197.87 157.23C199.71 143.2 201.58 129.17 203.31 115.13C203.96 109.87 205.69 105.49 211.52 103.37C210.08 103.37 209.15 103.37 208.23 103.37C200.78 103.28 196.75 106.67 195.73 114.03C194.53 122.7 193.43 131.38 192.3 140.06C189.99 157.73 187.68 175.39 185.38 193.06C184.66 198.6 183.71 204.13 183.38 209.69C183 216.01 189 220.42 195.17 218.76C191.6 216.07 190.7 212.37 191.21 208.17C191.85 202.93 192.53 197.7 193.22 192.47V192.49Z" fill="#1D4594"/>
<path d="M157.45 248.31C144.2 247.36 130.94 246.42 117.78 245.47C117.96 251.14 119.65 256.68 116.18 261.78H155.79C153.13 259.8 151.88 257.47 152.22 254.42C152.58 251.21 154.56 249.42 157.45 248.31Z" fill="#182954"/>
<path d="M161.78 261.5C172.95 261.62 184.13 261.65 195.3 261.69C195.92 261.69 196.55 261.63 197.14 261.47C198.77 261.01 199.32 259.91 198.57 258.38C197.98 257.16 197.4 255.8 196.43 254.94C193.58 252.39 190.57 250.02 187.54 247.68C186.6 246.96 185.41 246.56 184.34 246.01C188.78 249.36 193.86 251.94 195.64 257.74C195.47 257.98 195.3 258.23 195.13 258.47C194.31 258.01 193.34 257.69 192.7 257.04C191.45 255.76 190.44 254.24 189.22 252.92C188.35 251.98 187.31 251.2 186.35 250.34C187.72 253.2 189.91 255.5 189.89 258.91C188.06 257.61 186.47 256.08 184.74 254.73C182.41 252.92 180.22 252.22 178.45 252.55C179.17 253.08 179.85 253.49 180.43 254.02C181.8 255.27 183.19 256.5 184.42 257.88C184.8 258.3 184.98 259.28 184.74 259.75C184.56 260.11 183.52 260.3 182.97 260.15C181.48 259.76 180.04 259.17 178.6 258.62C175.79 257.55 172.95 256.49 169.94 257.65C165.95 259.2 161.85 259.86 157.53 259.42C158.42 261.06 158.96 261.47 161.77 261.5H161.78Z" fill="#182954"/>
<path d="M331.01 213.46C329.86 218.89 328.46 224.11 329.8 229.47H333.05C333.6 223.9 334.14 218.48 331.01 213.46Z" fill="#40AEE3"/>
<path d="M312.99 215.11C311.78 219.77 310.17 224.54 312.18 229.54H315.13C316.22 223.43 315.12 216.72 313 215.11H312.99Z" fill="#40AEE3"/>
<path d="M172.78 247.63C175.58 246.79 178.31 246.2 181.25 247.85C181.37 246.07 180.6 245.3 179.29 245.22C177.64 245.12 175.89 244.91 174.33 245.31C170.01 246.43 165.76 247.81 161.52 249.18C160.55 249.49 159.68 250.14 158.77 250.64C158.84 250.79 158.92 250.94 158.99 251.09C159.6 251.04 160.23 251.08 160.81 250.92C164.81 249.85 168.83 248.82 172.8 247.63H172.78Z" fill="#182954"/>
<path d="M135.72 17.31C137.78 17.29 139.35 15.86 139.43 13.94C139.51 11.86 138.13 10.37 136.09 10.33C133.98 10.29 132.4 11.8 132.39 13.86C132.38 15.85 133.81 17.32 135.72 17.31Z" fill="#40AEE3"/>
<path d="M201.86 259.83C201.51 260.5 201.23 261.03 200.83 261.77H222.42C222.48 261.41 222.58 261.12 222.57 260.82C222.57 260.53 222.47 260.24 222.31 259.43C217.86 259.72 213.39 259.73 209.02 260.42C206.51 260.82 204.2 261.49 201.86 259.84V259.83Z" fill="#182954"/>
<path d="M318.9 217.75C318.82 221.99 316.42 225.61 318.04 229.73C319.03 229.65 320.09 229.57 321.24 229.49C321.35 225.4 321.93 221.44 318.9 217.76V217.75Z" fill="#40AEE3"/>
<path d="M327.16 228.64C327.51 225.24 326.52 222.07 325.46 218.67C323.35 222.68 322.96 225.32 323.8 229.66C324.63 229.62 325.38 229.68 326.08 229.51C326.5 229.41 327.13 228.97 327.16 228.64Z" fill="#40AEE3"/>
<path d="M108.24 228.13H101.14V230.42H108.24V228.13Z" fill="#1D4594"/>
<path d="M101.01 249.83C101.05 250.71 101.08 251.41 101.11 252.13H108.18C108.25 251.34 108.32 250.63 108.39 249.83H101H101.01Z" fill="#1D4594"/>
<path d="M101.1 256.73C103.04 256.73 104.78 256.63 106.5 256.76C108.35 256.9 108.61 256.02 108.21 254.41H100.99C101.03 255.23 101.07 255.93 101.1 256.73Z" fill="#1D4594"/>
<path d="M101.12 234.76H108.2V232.67H101.01C101.05 233.44 101.08 234.08 101.11 234.76H101.12Z" fill="#1D4594"/>
<path d="M136.58 21.68H134.63C134.63 22.66 134.54 23.47 134.67 24.25C134.73 24.57 135.26 25.02 135.59 25.03C135.91 25.04 136.49 24.61 136.54 24.3C136.67 23.48 136.59 22.61 136.59 21.68H136.58Z" fill="#40AEE3"/>
<path d="M136.52 29.45C135.9 29.41 135.36 29.38 134.66 29.34V32.72C135.36 32.67 135.93 32.62 136.52 32.57V29.45Z" fill="#40AEE3"/>
<path d="M136.48 37.6H134.65V40.98C135.35 40.94 135.92 40.91 136.48 40.88V37.59V37.6Z" fill="#40AEE3"/>
<path d="M136.41 49.08V45.83H134.67V49.08H136.41Z" fill="#40AEE3"/>
<path d="M172.25 48.01C176.93 50.9 181.68 50.54 186.36 47.94C186.78 47.71 187.2 47.15 187.28 46.68C188 42.62 186.13 40.09 181.89 39.46C181.02 41.43 180.14 43.44 179.14 45.71C178.57 44.47 178.12 43.53 177.72 42.57C177.32 41.6 176.97 40.61 176.56 39.53C172.19 40.23 171.81 40.6 171.16 44.7C171.1 45.07 170.96 45.49 171.08 45.8C171.39 46.58 171.62 47.64 172.24 48.01H172.25Z" fill="#1D4594"/>
<path d="M179.15 39.74C181.55 39.76 183.78 37.06 183.76 34.16C183.74 31.3 181.93 29.48 179.11 29.48C176.32 29.48 174.69 31.29 174.73 34.33C174.78 37.49 176.6 39.72 179.15 39.74Z" fill="#1D4594"/>
<path d="M161.69 138.23C160.35 137.62 158.74 137.31 157.26 137.37C155.44 137.44 153.65 138.03 151.24 138.51C153.55 139.96 155.37 141.32 157.38 142.3C159.03 143.11 160.66 142.42 161.97 141.21C163.17 140.1 163.16 138.9 161.68 138.23H161.69Z" fill="#182954"/>
<path d="M113.25 108.22C113.64 109.16 114.18 110.06 114.37 111.02C114.56 112.03 114.41 113.11 114.41 114.79C115.46 114.38 116.57 114.31 116.83 113.8C118.13 111.3 116.15 108.32 113.24 108.22H113.25Z" fill="#1D4594"/>
<path d="M157.53 103.08C158.8 103.93 159.99 103.62 161.02 102.2C155.55 97.63 149.33 96.78 142.52 98.09C142.7 98.23 142.79 98.37 142.88 98.38C148.2 98.59 153.08 100.11 157.52 103.09L157.53 103.08Z" fill="#182954"/>
<path d="M150.45 114.98C151.14 114.16 151.84 113.35 152.78 112.24C151.89 111.18 151.28 109.86 150.68 109.86C149.22 109.86 148.9 111.32 149.09 112.47C149.24 113.36 149.97 114.14 150.45 114.98Z" fill="#1D4594"/>
<path d="M329.46 16.61C331.71 16.61 333.54 14.78 333.54 12.53C333.54 10.28 331.71 8.45 329.46 8.45C327.21 8.45 325.38 10.28 325.38 12.53C325.38 14.78 327.21 16.61 329.46 16.61Z" fill="#40AEE3"/>
<path d="M329.96 25.01H328.96V31.01H329.96V25.01Z" fill="#40AEE3"/>
<path d="M329.96 50.03H328.96V64.3H329.96V50.03Z" fill="#40AEE3"/>
<path d="M329.96 33.38H328.96V47.65H329.96V33.38Z" fill="#40AEE3"/>
<path d="M329.96 66.68H328.96V72.68H329.96V66.68Z" fill="#40AEE3"/>
<path d="M324.5 92.13L322.7 93.93L323.41 94.64L325.21 92.84C326.24 93.72 327.54 94.29 328.96 94.39V96.93H329.96V94.39C331.39 94.28 332.69 93.72 333.71 92.84L335.51 94.64L336.22 93.93L334.42 92.13C335.3 91.1 335.87 89.8 335.97 88.37H338.51V87.37H335.97C335.86 85.94 335.3 84.64 334.42 83.62L336.22 81.82L335.51 81.11L333.71 82.91C332.68 82.03 331.39 81.46 329.96 81.36V78.82H328.96V81.36C327.53 81.47 326.23 82.03 325.2 82.91L323.4 81.11L322.69 81.82L324.49 83.62C323.61 84.65 323.04 85.95 322.94 87.37H320.4V88.37H322.94C323.05 89.8 323.61 91.1 324.49 92.13H324.5Z" fill="#40AEE3"/>
<path d="M9.05998 8.16C11.31 8.16 13.14 6.33 13.14 4.08C13.14 1.83 11.31 0 9.05998 0C6.80998 0 4.97998 1.83 4.97998 4.08C4.97998 6.33 6.80998 8.16 9.05998 8.16Z" fill="#40AEE3"/>
<path d="M9.56006 16.55H8.56006V22.55H9.56006V16.55Z" fill="#40AEE3"/>
<path d="M9.56006 24.93H8.56006V39.2H9.56006V24.93Z" fill="#40AEE3"/>
<path d="M9.56006 41.58H8.56006V55.85H9.56006V41.58Z" fill="#40AEE3"/>
<path d="M9.56006 58.23H8.56006V64.23H9.56006V58.23Z" fill="#40AEE3"/>
<path d="M14.02 75.17L15.82 73.37L15.11 72.66L13.31 74.46C12.28 73.58 10.98 73.01 9.56 72.91V70.37H8.56V72.91C7.13 73.02 5.83 73.58 4.81 74.46L3.01 72.66L2.3 73.37L4.1 75.17C3.22 76.2 2.65 77.5 2.55 78.93H0V79.93H2.54C2.65 81.36 3.21 82.66 4.09 83.68L2.29 85.48L3 86.19L4.8 84.39C5.83 85.27 7.12 85.83 8.55 85.94V88.48H9.55V85.94C10.98 85.83 12.28 85.27 13.31 84.39L15.11 86.19L15.82 85.48L14.02 83.68C14.9 82.65 15.46 81.36 15.57 79.93H18.11V78.93H15.57C15.46 77.5 14.9 76.2 14.02 75.18V75.17Z" fill="#40AEE3"/>
<path d="M293.63 147.5C293.1 147.11 292.62 146.64 292.2 146.12L297 141.34C297.42 141.86 298.01 142.18 298.69 142.25C298.72 142.25 298.74 142.25 298.77 142.25C298.85 142.25 298.93 142.25 299 142.25C299.7 142.24 300.4 141.96 301.01 141.46C301.1 141.38 301.19 141.3 301.27 141.22L302.49 142.78C301.31 143.96 299.75 144.63 298.2 144.48C297.76 144.44 297.34 144.33 296.96 144.16L295.32 145.8C296.24 146.37 297.32 146.68 298.52 146.66C299.72 146.64 300.85 146.29 301.9 145.7C302.55 145.33 303.16 144.87 303.71 144.33L304.93 145.89L305.99 147.25L307.21 148.82C306.66 149.36 306.08 149.85 305.49 150.3C303.12 152.07 300.43 153.05 297.72 153.11C294.99 153.17 292.49 152.29 290.52 150.59L292.19 148.92C293.82 150.21 295.82 150.88 298 150.84C300.17 150.79 302.32 150.05 304.24 148.7L303.16 147.32C301.67 148.3 299.97 148.89 298.23 148.92C296.49 148.95 294.9 148.43 293.62 147.48L293.63 147.5Z" fill="#40AEE3"/>
<path d="M289.87 142.7C290.15 143.34 290.5 143.94 290.91 144.47L295.72 139.7C295.31 139.16 295.11 138.47 295.13 137.7C295.13 137.67 295.13 137.64 295.13 137.61C295.13 137.52 295.14 137.43 295.15 137.35C295.25 136.57 295.58 135.82 296.1 135.21C296.18 135.12 296.26 135.03 296.34 134.95L295.11 133.38C293.92 134.55 293.13 136.21 293.07 137.97C293.05 138.47 293.1 138.95 293.19 139.4L291.54 141.03C291.15 139.93 291.01 138.68 291.18 137.34C291.35 136 291.8 134.78 292.45 133.68C292.85 133 293.34 132.37 293.88 131.82L292.65 130.25L291.58 128.89L290.35 127.32C289.8 127.87 289.3 128.45 288.83 129.07C286.98 131.5 285.77 134.39 285.38 137.42C284.99 140.47 285.45 143.37 286.71 145.79L288.39 144.13C287.45 142.15 287.11 139.82 287.43 137.39C287.74 134.97 288.67 132.65 290.09 130.67L291.17 132.05C290.12 133.6 289.39 135.42 289.14 137.36C288.89 139.3 289.16 141.15 289.83 142.7H289.87Z" fill="#40AEE3"/>
<path d="M305.57 127.16C306.09 127.55 306.56 128.01 306.98 128.53L302.26 133.21C301.84 132.69 301.26 132.37 300.58 132.3C300.55 132.3 300.53 132.3 300.5 132.3C300.42 132.3 300.34 132.3 300.27 132.3C299.58 132.3 298.88 132.58 298.27 133.08C298.18 133.15 298.09 133.23 298.01 133.32L296.79 131.76C297.97 130.59 299.53 129.94 301.07 130.1C301.51 130.14 301.92 130.26 302.3 130.42L303.92 128.82C303.01 128.25 301.94 127.93 300.75 127.94C299.56 127.95 298.43 128.28 297.39 128.86C296.74 129.22 296.13 129.67 295.57 130.2L294.35 128.63L293.29 127.27L292.06 125.7C292.62 125.17 293.2 124.69 293.8 124.26C296.18 122.55 298.85 121.63 301.54 121.61C304.22 121.59 306.67 122.49 308.6 124.17L306.98 125.77C305.38 124.49 303.41 123.81 301.26 123.82C299.11 123.84 296.97 124.54 295.05 125.85L296.13 127.23C297.62 126.27 299.31 125.72 301.03 125.7C302.77 125.69 304.32 126.22 305.58 127.16H305.57Z" fill="#40AEE3"/>
<path d="M309.28 131.9C309 131.27 308.66 130.68 308.25 130.15L303.54 134.84C303.94 135.37 304.15 136.06 304.13 136.83C304.13 136.86 304.13 136.89 304.13 136.92C304.13 137.01 304.12 137.09 304.11 137.18C304.02 137.95 303.69 138.7 303.17 139.32C303.09 139.41 303.01 139.5 302.93 139.58L304.15 141.14C305.32 139.96 306.1 138.31 306.15 136.56C306.17 136.06 306.12 135.59 306.02 135.14L307.63 133.53C308.02 134.61 308.16 135.86 308 137.18C307.84 138.5 307.41 139.72 306.77 140.82C306.37 141.5 305.9 142.13 305.36 142.68L306.58 144.24L307.64 145.6L308.86 147.16C309.39 146.6 309.89 146.02 310.35 145.4C312.15 142.96 313.3 140.09 313.65 137.1C314 134.1 313.52 131.26 312.29 128.88L310.67 130.49C311.6 132.44 311.95 134.72 311.66 137.13C311.37 139.54 310.49 141.83 309.1 143.82L308.03 142.45C309.06 140.9 309.76 139.09 309.99 137.17C310.22 135.25 309.95 133.43 309.28 131.9Z" fill="#40AEE3"/>
<path d="M157.29 222.67C156.67 223.38 156 224.04 155.3 224.64C152.45 227.08 149.05 228.48 145.56 228.56C142.04 228.64 138.92 227.37 136.6 224.99L138.83 222.76C140.74 224.5 143.21 225.42 145.94 225.36C148.66 225.3 151.33 224.29 153.62 222.5L152.22 220.72C150.45 221.98 148.4 222.74 146.26 222.78C144.1 222.82 142.19 222.13 140.7 220.9C140.09 220.4 139.55 219.81 139.09 219.16L144.91 213.52C145.38 214.12 146.04 214.48 146.82 214.56H146.91C147 214.56 147.09 214.56 147.18 214.56C147.98 214.56 148.78 214.23 149.46 213.66C149.56 213.58 149.66 213.49 149.75 213.39L151.2 215.18C149.88 216.56 148.07 217.37 146.25 217.18C145.73 217.13 145.25 217 144.8 216.8L142.82 218.78C143.88 219.49 145.18 219.89 146.61 219.86C148.02 219.83 149.4 219.4 150.62 218.67C151.38 218.22 152.08 217.66 152.69 217.01L154.24 218.92L155.63 220.63L157.29 222.66V222.67Z" fill="white"/>
<path d="M142.95 209.48C142.95 209.48 142.94 209.54 142.94 209.58C142.88 210.39 143.08 211.13 143.51 211.71L137.72 217.15C137.29 216.52 136.95 215.82 136.69 215.07C136.09 213.31 135.98 211.3 136.46 209.22C136.92 207.23 137.86 205.44 139.08 203.96L138.07 202.68C136.42 204.53 135.2 206.79 134.59 209.24C133.94 211.84 134.03 214.44 134.85 216.74L132.66 218.75C131.57 215.84 131.48 212.54 132.37 209.27C133.2 206.21 134.8 203.45 136.93 201.23C137.45 200.69 138.01 200.17 138.59 199.7L139.71 201.07L140.71 202.3L141.89 203.75C141.3 204.27 140.76 204.86 140.3 205.52C139.53 206.59 138.96 207.84 138.68 209.19C138.38 210.6 138.43 211.95 138.78 213.16L140.74 211.37C140.66 210.89 140.64 210.38 140.69 209.85C140.86 208.03 141.79 206.37 143.09 205.23L144.34 206.76C144.25 206.84 144.16 206.93 144.08 207.02C143.5 207.64 143.12 208.4 142.98 209.21C142.98 209.3 142.95 209.39 142.95 209.48Z" fill="white"/>
<path d="M153.69 199.55C154.23 199.89 154.73 200.29 155.19 200.75L150.59 205.07C150.13 204.57 149.52 204.27 148.81 204.2C148.78 204.2 148.76 204.2 148.73 204.2C148.65 204.2 148.57 204.19 148.49 204.2C147.77 204.2 147.04 204.46 146.4 204.94C146.3 205.01 146.21 205.09 146.12 205.17L144.87 203.68C146.1 202.6 147.69 202 149.27 202.15C149.72 202.19 150.14 202.29 150.53 202.44L152.11 201C151.18 200.49 150.09 200.21 148.91 200.22C147.73 200.23 146.59 200.53 145.53 201.04C144.87 201.36 144.24 201.76 143.66 202.25L142.48 200.84L141.47 199.65L140.35 198.32C140.92 197.87 141.51 197.47 142.11 197.12C144.45 195.74 147.01 195 149.55 194.99C152.09 194.97 154.46 195.68 156.45 197.04L154.99 198.37C153.35 197.3 151.41 196.75 149.33 196.76C147.26 196.78 145.18 197.35 143.27 198.44L144.29 199.62C145.79 198.8 147.45 198.33 149.14 198.31C150.84 198.3 152.39 198.75 153.69 199.56V199.55Z" fill="white"/>
<path d="M163.15 208.97C163.23 212.17 162.37 215.42 160.63 218.33C160.17 219.09 159.66 219.82 159.09 220.52L157.44 218.57L156.05 216.92L154.49 215.08C155.07 214.44 155.56 213.73 155.95 212.97C156.57 211.76 156.94 210.43 156.98 209.05C157.03 207.7 156.76 206.45 156.25 205.39L154.66 206.97C154.8 207.42 154.89 207.9 154.91 208.41C154.99 210.22 154.25 212.01 153 213.31L151.55 211.58C151.63 211.5 151.72 211.4 151.8 211.3C152.35 210.64 152.67 209.84 152.73 209.04C152.73 208.94 152.74 208.85 152.74 208.76C152.74 208.73 152.74 208.7 152.73 208.67C152.73 207.89 152.46 207.19 152 206.66L156.6 202.2C157.06 202.69 157.47 203.23 157.82 203.82C158.68 205.27 159.18 207.05 159.15 209.02C159.13 211.06 158.55 213.05 157.55 214.8L158.95 216.41C160.3 214.1 160.99 211.54 160.98 209C160.98 206.56 160.31 204.34 159.12 202.52L160.58 201.07C162.15 203.23 163.07 205.95 163.15 208.97Z" fill="white"/>
</g>
</svg>
