<svg width="135" height="72" viewBox="0 0 135 72" fill="none" xmlns="http://www.w3.org/2000/svg">
<path d="M60.7575 34.9306C59.8827 34.3861 59.0682 33.7578 58.3382 33.0398L64.6971 26.7334C65.4331 27.4454 66.3863 27.8822 67.424 27.9899C67.4662 27.9959 67.5085 28.0019 67.5507 28.0019C67.6713 28.0139 67.792 28.0198 67.9066 28.0198C68.9624 28.0198 69.982 27.6608 70.8085 26.9907C70.9292 26.889 71.0499 26.7873 71.1585 26.6736L73.3183 28.8156C71.7376 30.3832 69.4933 31.2508 67.1042 31.0115C66.4285 30.9457 65.777 30.7901 65.1616 30.5568L62.9837 32.7167C64.4799 33.5065 66.1812 33.9553 67.9911 33.9493C69.801 33.9433 71.4601 33.5125 72.9442 32.7407C73.8673 32.262 74.7119 31.6517 75.454 30.9397L81.6499 37.0846C80.9079 37.7966 80.1175 38.4488 79.285 39.0291C75.997 41.3327 72.0875 42.5772 67.9911 42.5772C63.8766 42.5772 59.9491 41.3267 56.649 39.0052L58.845 36.8273C61.5418 38.5983 64.691 39.5497 67.9851 39.5497C71.261 39.5497 74.3982 38.6103 77.0829 36.8512L75.1825 34.9665C73.089 36.2469 70.6275 36.9888 67.9911 36.9888C65.3547 36.9888 62.8509 36.2409 60.7454 34.9365L60.7575 34.9306Z" fill="url(#paint0_linear_101_37)"/>
<path d="M54.1815 28.4147C54.7305 29.2823 55.3639 30.0901 56.0879 30.814L62.4467 24.5076C61.7288 23.7777 61.2884 22.8323 61.1798 21.8032C61.1738 21.7613 61.1677 21.7194 61.1677 21.6775C61.1557 21.5579 61.1496 21.4382 61.1496 21.3245C61.1496 20.2774 61.5116 19.2663 62.1873 18.4465C62.2899 18.3269 62.3924 18.2072 62.5071 18.0995L60.3472 15.9575C58.7666 17.5251 57.8918 19.7509 58.1331 22.1203C58.1995 22.7904 58.3563 23.4366 58.5916 24.0469L56.4137 26.2069C55.6173 24.723 55.1648 23.0357 55.1709 21.2407C55.1709 19.4697 55.6113 17.8003 56.3895 16.3285C56.8722 15.413 57.4876 14.5753 58.2055 13.8394L52.0096 7.69454C51.2916 8.43048 50.634 9.2143 50.0488 10.04C47.7261 13.3009 46.4712 17.1781 46.4712 21.2407C46.4712 25.3214 47.7321 29.2165 50.0729 32.4894L52.269 30.3114C50.4832 27.6369 49.5239 24.5136 49.5239 21.2467C49.5239 17.9978 50.4711 14.8865 52.2448 12.2239L54.1453 14.1086C52.8542 16.1849 52.1061 18.626 52.1061 21.2407C52.1061 23.8555 52.8602 26.3385 54.1754 28.4267L54.1815 28.4147Z" fill="url(#paint1_linear_101_37)"/>
<path d="M75.1282 7.64069C76.003 8.18517 76.8175 8.81342 77.5475 9.53141L71.1886 15.8378C70.4526 15.1258 69.4994 14.689 68.4617 14.5813C68.4195 14.5753 68.3772 14.5694 68.335 14.5694C68.2143 14.5574 68.0937 14.5514 67.979 14.5514C66.9233 14.5514 65.9037 14.9104 65.0771 15.5805C64.9565 15.6823 64.8358 15.784 64.7272 15.8977L62.5674 13.7556C64.1481 12.188 66.3923 11.3204 68.7814 11.5598C69.4571 11.6256 70.1087 11.7811 70.7241 12.0145L72.902 9.85451C71.4058 9.06471 69.7045 8.61597 67.8946 8.62195C66.0847 8.62793 64.4256 9.05873 62.9414 9.83058C62.0184 10.3092 61.1738 10.9195 60.4317 11.6316L54.2358 5.4867C54.9778 4.77468 55.7681 4.1225 56.6007 3.54212C59.8767 1.24453 63.7861 0 67.8885 0C72.0031 0 75.9306 1.25051 79.2307 3.57204L77.0346 5.74996C74.3379 3.9789 71.1886 3.02755 67.8946 3.02755C64.6005 3.02755 61.4814 3.96693 58.7967 5.72603L60.6971 7.61077C62.7906 6.33034 65.2521 5.58841 67.8885 5.58841C70.525 5.58841 73.0287 6.33633 75.1342 7.64069H75.1282Z" fill="url(#paint2_linear_101_37)"/>
<path d="M81.7042 14.1625C81.1552 13.2949 80.5218 12.4872 79.7978 11.7632L73.4389 18.0696C74.1569 18.7996 74.5973 19.7449 74.7059 20.7741C74.7119 20.8159 74.718 20.8578 74.718 20.8997C74.73 21.0194 74.7361 21.139 74.7361 21.2527C74.7361 22.2998 74.3741 23.311 73.6984 24.1307C73.5958 24.2504 73.4933 24.37 73.3786 24.4777L75.5385 26.6197C77.1191 25.0521 77.9939 22.8263 77.7526 20.4569C77.6862 19.7868 77.5294 19.1406 77.2941 18.5303L79.472 16.3703C80.2684 17.8542 80.7208 19.5415 80.7148 21.3365C80.7088 23.1315 80.2744 24.7769 79.4961 26.2488C79.0135 27.1642 78.3981 28.0019 77.6802 28.7378L83.8761 34.8827C84.5941 34.1467 85.2517 33.3629 85.8369 32.5372C88.1596 29.2763 89.4145 25.3992 89.4145 21.3365C89.4145 17.2559 88.1536 13.3607 85.8127 10.0879L83.6167 12.2658C85.4025 14.9403 86.3617 18.0636 86.3617 21.3305C86.3617 24.5794 85.4146 27.6908 83.6408 30.3533L81.7404 28.4686C83.0315 26.3924 83.7796 23.9512 83.7796 21.3365C83.7796 18.7218 83.0255 16.2387 81.7103 14.1505L81.7042 14.1625Z" fill="#43AEE3"/>
<path d="M13.1831 68.1962C13.1831 70.2748 11.4645 72 9.36859 72H0V70.5866H9.36859C10.689 70.5866 11.7789 69.5057 11.7789 68.1962V67.4063C11.7789 66.6372 11.213 65.9928 10.4375 65.9097L2.57793 64.9328C1.11082 64.7457 0 63.4985 0 62.0227V61.2536C0 59.1542 1.71862 57.4498 3.83546 57.4498H13.1831V58.8425H3.83546C2.4941 58.8425 1.40424 59.9233 1.40424 61.2536V62.0227C1.40424 62.7918 1.99109 63.4362 2.7456 63.5401L10.6052 64.517C12.0932 64.6833 13.1831 65.9305 13.1831 67.4063V68.1962Z" fill="#1D4594"/>
<path d="M28.2638 66.8659L22.6468 70.5866H29.3117V71.9792H21.0539C17.8053 71.9792 15.1855 69.381 15.1855 66.1591C15.1855 62.9581 17.8053 60.3598 21.0539 60.3598H26.2727C28.2428 60.3598 29.8567 61.9396 29.8567 63.9142C29.8567 65.099 29.2488 66.2007 28.2638 66.8659ZM20.1946 70.5034L27.4673 65.7018C28.0752 65.3069 28.4315 64.6418 28.4315 63.9142C28.4315 62.7294 27.4673 61.7525 26.2727 61.7525H21.0539C18.6018 61.7525 16.5897 63.7272 16.5897 66.1591C16.5897 68.1338 17.9311 69.9006 19.8593 70.4203L20.1946 70.5034Z" fill="#1D4594"/>
<path d="M37.6941 61.7525C35.2419 61.7525 33.2299 63.7272 33.2299 66.1591C33.2299 68.5911 35.2419 70.5866 37.6941 70.5866H46.4968V71.9792H37.6941C34.4455 71.9792 31.8256 69.381 31.8256 66.1591C31.8256 62.9581 34.4455 60.3598 37.6941 60.3598H46.4968V61.7525H37.6941Z" fill="#1D4594"/>
<path d="M61.8444 60.3598H63.2696V67.7181C63.2696 70.0669 61.3414 71.9792 58.973 71.9792H52.895C50.5266 71.9792 48.5984 70.0669 48.5984 67.7181V60.3598H50.0027V67.7181C50.0027 69.2978 51.3021 70.5658 52.895 70.5658H58.973C60.5659 70.5658 61.8444 69.2978 61.8444 67.7181V60.3598Z" fill="#1D4594"/>
<path d="M70.3543 60.3598H76.3066V61.7525H70.3543C68.7615 61.7525 67.462 63.0412 67.462 64.6002V71.9792H66.0578V64.6002C66.0578 62.2514 67.986 60.3598 70.3543 60.3598Z" fill="#1D4594"/>
<path d="M90.7718 66.8659L85.1548 70.5866H91.8198V71.9792H83.562C80.3134 71.9792 77.6935 69.381 77.6935 66.1591C77.6935 62.9581 80.3134 60.3598 83.562 60.3598H88.7807C90.7509 60.3598 92.3647 61.9396 92.3647 63.9142C92.3647 65.099 91.7569 66.2007 90.7718 66.8659ZM82.7027 70.5034L89.9754 65.7018C90.5832 65.3069 90.9395 64.6418 90.9395 63.9142C90.9395 62.7294 89.9754 61.7525 88.7807 61.7525H83.562C81.1098 61.7525 79.0977 63.7272 79.0977 66.1591C79.0977 68.1338 80.4391 69.9006 82.3673 70.4203L82.7027 70.5034Z" fill="#1D4594"/>
<path d="M96.4505 58.8425V72H95.0463V57.4498H99.1123L106.469 70.5866H108.292V57.4498H109.717V72H105.651L98.2739 58.8425H96.4505Z" fill="#1D4594"/>
<path d="M125.444 66.8659L119.827 70.5866H126.492V71.9792H118.234C114.985 71.9792 112.366 69.381 112.366 66.1591C112.366 62.9581 114.985 60.3598 118.234 60.3598H123.453C125.423 60.3598 127.037 61.9396 127.037 63.9142C127.037 65.099 126.429 66.2007 125.444 66.8659ZM117.375 70.5034L124.647 65.7018C125.255 65.3069 125.612 64.6418 125.612 63.9142C125.612 62.7294 124.647 61.7525 123.453 61.7525H118.234C115.782 61.7525 113.77 63.7272 113.77 66.1591C113.77 68.1338 115.111 69.9006 117.039 70.4203L117.375 70.5034Z" fill="#1D4594"/>
<path d="M135 61.7525H130.766V66.7827C130.766 68.8821 132.485 70.5866 134.602 70.5866H135V71.9792H134.602C131.709 71.9792 129.362 69.6512 129.362 66.7827V57.429H130.766V60.3598H135V61.7525Z" fill="#1D4594"/>
<defs>
<linearGradient id="paint0_linear_101_37" x1="135.652" y1="-145.463" x2="85.3597" y2="64.4246" gradientUnits="userSpaceOnUse">
<stop stop-color="#1D4594"/>
<stop offset="1" stop-color="#182A54"/>
</linearGradient>
<linearGradient id="paint1_linear_101_37" x1="145.717" y1="-53.1139" x2="131.826" y2="87.8443" gradientUnits="userSpaceOnUse">
<stop stop-color="#1D4594"/>
<stop offset="1" stop-color="#182A54"/>
</linearGradient>
<linearGradient id="paint2_linear_101_37" x1="88.273" y1="-39.184" x2="37.98" y2="170.748" gradientUnits="userSpaceOnUse">
<stop stop-color="#1D4594"/>
<stop offset="1" stop-color="#182A54"/>
</linearGradient>
</defs>
</svg>
