<svg width="150" height="150" viewBox="0 0 150 150" fill="none" xmlns="http://www.w3.org/2000/svg">
<g clip-path="url(#clip0_101_38)">
<path d="M49.9017 123.078C46.8447 121.16 43.9986 118.946 41.4477 116.416L63.6684 94.1954C66.2404 96.7041 69.5714 98.2431 73.1975 98.6226C73.3451 98.6437 73.4927 98.6648 73.6402 98.6648C74.0619 98.707 74.4835 98.728 74.8841 98.728C78.5735 98.728 82.1364 97.4631 85.0247 95.1019C85.4463 94.7435 85.8679 94.3851 86.2474 93.9845L93.7949 101.532C88.2713 107.056 80.4287 110.112 72.0802 109.269C69.719 109.037 67.4421 108.489 65.2917 107.667L57.681 115.278C62.9094 118.06 68.8546 119.642 75.1792 119.621C81.5039 119.599 87.3015 118.082 92.4878 115.362C95.7133 113.675 98.6648 111.525 101.258 109.016L108.805 116.564L115.362 123.12L122.909 130.668C120.316 133.176 117.555 135.474 114.645 137.519C103.155 145.636 89.4941 150.021 75.1792 150.021C60.8012 150.021 47.0767 145.615 35.5447 137.435L43.2186 129.761C52.6424 136.001 63.6473 139.353 75.1582 139.353C86.6058 139.353 97.5686 136.044 106.95 129.845L100.309 123.204C92.9937 127.716 84.3922 130.33 75.1792 130.33C65.9663 130.33 57.2172 127.695 49.8595 123.099L49.9017 123.078Z" fill="url(#paint0_linear_101_38)"/>
<path d="M26.922 100.119C28.8405 103.176 31.0541 106.022 33.584 108.573L55.8046 86.3528C53.2959 83.7807 51.7569 80.4497 51.3774 76.8236C51.3563 76.676 51.3352 76.5285 51.3352 76.3809C51.293 75.9592 51.272 75.5376 51.272 75.137C51.272 71.4476 52.5369 67.8848 54.8981 64.9965C55.2565 64.5748 55.6149 64.1532 56.0155 63.7737L48.468 56.2263C42.9445 61.7498 39.8876 69.5924 40.7309 77.941C40.9628 80.3022 41.5109 82.579 42.3331 84.7294L34.7224 92.3401C31.9396 87.1117 30.3584 81.1665 30.3795 74.8419C30.3795 68.6015 31.9185 62.7196 34.6381 57.5334C36.3247 54.3078 38.4751 51.3563 40.9838 48.7632L33.4364 41.2157L26.8798 34.6592L19.3324 27.1117C16.8236 29.7048 14.5257 32.4666 12.4807 35.376C4.3851 46.8236 0 60.4849 0 74.8208C0 89.1989 4.40618 102.923 12.5861 114.455L20.26 106.781C14.0197 97.3577 10.6676 86.3528 10.6676 74.8419C10.6676 63.3942 13.9775 52.4315 20.1757 43.0499L26.8166 49.6908C22.305 57.0063 19.6908 65.6079 19.6908 74.8208C19.6908 84.0337 22.3261 92.7828 26.922 100.141V100.119Z" fill="url(#paint1_linear_101_38)"/>
<path d="M100.12 26.922C103.176 28.8405 106.023 31.0541 108.574 33.584L86.3529 55.8046C83.7808 53.2959 80.4498 51.7569 76.8237 51.3774C76.6761 51.3563 76.5285 51.3352 76.381 51.3352C75.9593 51.293 75.5377 51.272 75.1371 51.272C71.4477 51.272 67.8848 52.5369 64.9966 54.8981C64.5749 55.2565 64.1533 55.6149 63.7738 56.0155L56.2264 48.468C61.7499 42.9445 69.5925 39.8876 77.9411 40.7309C80.3023 40.9628 82.5791 41.5109 84.7295 42.3331L92.3402 34.7224C87.1118 31.9396 81.1666 30.3584 74.842 30.3795C68.5173 30.4006 62.7197 31.9185 57.5335 34.6381C54.3079 36.3247 51.3564 38.4751 48.7633 40.9838L41.2158 33.4364L34.6593 26.8798L27.1118 19.3324C29.7049 16.8236 32.4667 14.5257 35.376 12.4807C46.8237 4.3851 60.485 0 74.8209 0C89.199 0 102.923 4.40618 114.455 12.5861L106.782 20.26C97.3578 14.0197 86.3529 10.6676 74.842 10.6676C63.3311 10.6676 52.4316 13.9775 43.05 20.1757L49.6909 26.8166C57.0064 22.305 65.608 19.6908 74.8209 19.6908C84.0338 19.6908 92.7829 22.3261 100.141 26.922H100.12Z" fill="url(#paint2_linear_101_38)"/>
<path d="M123.078 49.9016C121.16 46.8447 118.946 43.9986 116.416 41.4476L94.1954 63.6683C96.7042 66.2403 98.2432 69.5713 98.6227 73.1975C98.6438 73.345 98.6649 73.4926 98.6649 73.6402C98.707 74.0618 98.7281 74.4835 98.7281 74.884C98.7281 78.5734 97.4632 82.1363 95.102 85.0246C94.7436 85.4462 94.3852 85.8679 93.9846 86.2474L101.532 93.7948C107.056 88.2713 110.113 80.4287 109.269 72.0801C109.037 69.7189 108.489 67.442 107.667 65.2916L115.278 57.681C118.061 62.9093 119.642 68.8545 119.621 75.1792C119.6 81.5039 118.082 87.3015 115.362 92.4877C113.675 95.7133 111.525 98.6648 109.016 101.258L116.564 108.805L123.12 115.362L130.668 122.909C133.176 120.316 135.474 117.554 137.519 114.645C145.636 103.155 150.021 89.494 150.021 75.1792C150.021 60.8011 145.615 47.0766 137.435 35.5446L129.761 43.2186C136.001 52.6423 139.354 63.6472 139.354 75.1581C139.354 86.6058 136.044 97.5685 129.845 106.95L123.205 100.309C127.716 92.9937 130.33 84.3921 130.33 75.1792C130.33 65.9663 127.695 57.2171 123.099 49.8594L123.078 49.9016Z" fill="#43AEE3"/>
</g>
<defs>
<linearGradient id="paint0_linear_101_38" x1="123.331" y1="-19.227" x2="77.3718" y2="140.26" gradientUnits="userSpaceOnUse">
<stop stop-color="#1D4594"/>
<stop offset="1" stop-color="#182A54"/>
</linearGradient>
<linearGradient id="paint1_linear_101_38" x1="60.4638" y1="-37.3366" x2="14.5256" y2="122.129" gradientUnits="userSpaceOnUse">
<stop stop-color="#1D4594"/>
<stop offset="1" stop-color="#182A54"/>
</linearGradient>
<linearGradient id="paint2_linear_101_38" x1="84.2235" y1="-30.4849" x2="38.2854" y2="128.981" gradientUnits="userSpaceOnUse">
<stop stop-color="#1D4594"/>
<stop offset="1" stop-color="#182A54"/>
</linearGradient>
<clipPath id="clip0_101_38">
<rect width="150" height="150" fill="white"/>
</clipPath>
</defs>
</svg>
